<?xml version="1.0" standalone="yes"?>
<svg xmlns="http://www.w3.org/2000/svg" width="369" height="94">
<path style="fill:#010101; stroke:none;" d="M0 0L0 43C8.53302 39.5833 4.9413 31.3423 6.92747 24C9.61476 14.0659 18.1235 4.15372 28 1L0 0z"/>
<path style="fill:#ffffff; stroke:none;" d="M0 43L4 50L0 51L4 59L0 60C2.47782 68.5657 15.9599 69.5416 23 73.6157C29.4469 77.3466 36.3291 81.5035 41.9066 86.4645C43.9347 88.2684 46.2245 92.6559 49.091 93.0787C52.4402 93.5727 57.4904 86.1825 60.0039 84.2361C67.2148 78.6522 75.4885 73.1398 84 69.8117C89.9238 67.4955 97.0218 66.8386 99 60L95 59L99 51L95 50L99 43C90.7988 38.1004 94.2286 30.9703 92.0725 23C89.094 11.9892 79.4697 1.72552 68 0L67 33C53.0074 27.1821 45.9926 27.1821 32 33L31 0C19.5303 1.72552 9.90601 11.9892 6.92747 23C4.77142 30.9703 8.20117 38.1004 0 43z"/>
<path style="fill:#010101; stroke:none;" d="M31 0L32 33C47.2515 28.608 51.7485 28.608 67 33L68 0L31 0M71 0L71 1C80.8765 4.15372 89.3852 14.0659 92.0725 24C94.0587 31.3423 90.467 39.5833 99 43L95 50L99 51L95 59L99 60C95.4653 67.3547 86.8618 67.979 80 71.0401C69.7106 75.6304 55.9939 83.5916 51 94L369 94L369 32L330 32L330 23L369 23L369 0L71 0z"/>
<path style="fill:#ffffff; stroke:none;" d="M119 23L119 71L128 71C128 49.2726 152.55 41.12 161 23C147.416 23 134.909 32.3291 129 45L128 45L128 23L119 23M171 23L171 31C178.609 31 188.827 29.2347 195.981 32.1481C201.989 34.5946 203.005 41.5891 196.956 44.821C190.861 48.0774 176.331 42.1706 172.028 47.6034C168.526 52.025 171 65.4895 171 71L181 71L181 55C193.898 55.01 192.262 64.1554 201.515 69.9722C204.563 71.8884 209.551 71 213 71L201 53C212.354 48.5319 215.474 31.7066 203.996 25.0895C195.492 20.1864 180.536 23 171 23M221 23L239.49 54L240 72L250 72C250 53.6021 243.889 23 221 23M252 46L254 46L268 23C255.599 23.0014 244.883 33.9839 252 46M278 23L278 31C285.406 31 302.055 28.0729 305.497 37.044C310.574 50.2772 284.381 48 278 48L278 71L288 71L288 56C294.943 56 302.812 56.8616 308.985 52.9946C318.04 47.3216 318.496 32.4132 309.815 26.1335C301.75 20.2998 287.435 23 278 23M330 23L330 32L369 32L369 23L330 23M345 38L345 71L354 71L354 38L345 38z"/>
<path style="fill:#010101; stroke:none;" d="M0 46L0 51L4 50L0 46z"/>
<path style="fill:#ffffff; stroke:none;" d="M161 71C159.582 67.646 157.572 64.8908 155.349 62C153.067 59.0337 148.957 51.499 144.92 50.9213C133.36 49.2672 145.986 67.2896 149.09 69.3966C152.467 71.6892 157.122 71 161 71z"/>
<path style="fill:#010101; stroke:none;" d="M0 53L0 60L4 59L0 53M0 63L0 94L48 94C39.3576 75.8872 15.7727 72.0127 0 63z"/>
</svg>
